<?xml version="1.0" encoding="UTF-8"?>
<svg width="300px" height="392px" viewBox="0 0 300 392" version="1.1" xmlns="http://www.w3.org/2000/svg" xmlns:xlink="http://www.w3.org/1999/xlink">
    <!-- Generator: Sketch 51.2 (57519) - http://www.bohemiancoding.com/sketch -->
    <title>graded_work</title>
    <desc>Created with Sketch.</desc>
    <defs></defs>
    <g id="Page-1" stroke="none" stroke-width="1" fill="none" fill-rule="evenodd">
        <g id="graded_work">
            <g id="Group">
                <g transform="translate(0.000000, 39.000000)" fill-rule="nonzero" id="Shape">
                    <path d="M252.106,352.313 L11.977,352.313 C5.575,352.313 0.386,347.123 0.386,340.722 L0.386,11.865 C0.386,5.463 5.576,0.274 11.977,0.274 L252.106,0.274 C258.508,0.274 263.697,5.464 263.697,11.865 L263.697,340.722 C263.697,347.123 258.508,352.313 252.106,352.313 Z" fill="#BE8242"></path>
                    <path d="M267.174,352.313 L27.046,352.313 C20.644,352.313 15.455,347.123 15.455,340.722 L15.455,11.865 C15.455,5.463 20.645,0.274 27.046,0.274 L267.175,0.274 C273.577,0.274 278.766,5.464 278.766,11.865 L278.766,340.722 C278.766,347.123 273.576,352.313 267.174,352.313 Z" fill="#E5A258"></path>
                </g>
                <path d="M35.16,56.66 C33.88,56.66 32.842,57.698 32.842,58.978 L32.842,321.012 L32.842,336.866 C32.842,352.159 45.355,364.672 60.648,364.672 L261.38,364.672 L261.38,58.979 C261.38,57.699 260.342,56.661 259.062,56.661 L35.16,56.661 L35.16,56.66 Z" id="Shape" fill="#FFFFFF" fill-rule="nonzero"></path>
                <g transform="translate(78.000000, 0.000000)" fill-rule="nonzero">
                    <g transform="translate(37.000000, 0.000000)" fill="#C4C3C3">
                        <rect id="Rectangle-path" x="26.914" y="0.687" width="9.273" height="31.296"></rect>
                        <circle id="Oval" cx="26.914" cy="26.961" r="26.274"></circle>
                    </g>
                    <path d="M0.777,39.274 L23.766,39.274 L23.766,26.961 L9.428,26.961 C4.65,26.961 0.777,30.834 0.777,35.612 L0.777,39.274 Z" id="Shape" fill="#C4C3C3"></path>
                    <path d="M107.499,81.852 L22.647,81.852 C16.245,81.852 11.056,76.662 11.056,70.261 L11.056,32.756 C11.056,29.555 13.651,26.96 16.852,26.96 L113.296,26.96 C116.497,26.96 119.092,29.555 119.092,32.756 L119.092,70.261 C119.091,76.663 113.901,81.852 107.499,81.852 Z" id="Shape" fill="#C4C3C3"></path>
                    <path d="M115.613,81.852 L30.761,81.852 C24.359,81.852 19.17,76.662 19.17,70.261 L19.17,32.756 C19.17,29.555 21.765,26.96 24.966,26.96 L121.41,26.96 C124.611,26.96 127.206,29.555 127.206,32.756 L127.206,70.261 C127.205,76.663 122.015,81.852 115.613,81.852 Z" id="Shape" fill="#E9E1E2"></path>
                    <g transform="translate(36.000000, 45.000000)" fill="#FFFFFF" id="Oval">
                        <circle cx="7.34" cy="7.848" r="7.245"></circle>
                        <circle cx="67.035" cy="7.848" r="7.245"></circle>
                    </g>
                    <circle id="Oval" fill="#E9E1E2" cx="73.187" cy="26.961" r="26.274"></circle>
                </g>
                <path d="M92.137,325.302 C90.18,325.302 88.594,326.888 88.594,328.845 L88.594,336.726 C88.594,352.097 76.018,364.673 60.647,364.673 L275.289,364.673 C288.614,364.673 299.516,353.771 299.516,340.446 L299.516,328.845 C299.516,326.888 297.93,325.302 295.973,325.302 L92.137,325.302 Z" id="Shape" fill="#E9E1E2" fill-rule="nonzero"></path>
                <g transform="translate(57.000000, 100.000000)" fill="#E9E1E2" fill-rule="nonzero">
                    <circle id="Oval" cx="6.669" cy="7.225" r="6.665"></circle>
                    <circle id="Oval" cx="6.669" cy="34.754" r="6.665"></circle>
                    <circle id="Oval" cx="6.669" cy="62.284" r="6.665"></circle>
                    <circle id="Oval" cx="6.669" cy="89.813" r="6.665"></circle>
                    <circle id="Oval" cx="6.669" cy="117.342" r="6.665"></circle>
                    <circle id="Oval" cx="6.669" cy="144.871" r="6.665"></circle>
                    <circle id="Oval" cx="6.669" cy="172.4" r="6.665"></circle>
                    <circle id="Oval" cx="6.669" cy="199.93" r="6.665"></circle>
                    <rect id="Rectangle-path" x="28.193" y="3.662" width="152.024" height="7.126"></rect>
                    <rect id="Rectangle-path" x="28.193" y="31.191" width="152.024" height="7.126"></rect>
                    <rect id="Rectangle-path" x="28.193" y="58.72" width="152.024" height="7.126"></rect>
                    <rect id="Rectangle-path" x="28.193" y="86.25" width="152.024" height="7.126"></rect>
                    <rect id="Rectangle-path" x="28.193" y="113.779" width="152.024" height="7.126"></rect>
                    <rect id="Rectangle-path" x="28.193" y="141.308" width="152.024" height="7.126"></rect>
                    <rect id="Rectangle-path" x="28.193" y="168.837" width="152.024" height="7.126"></rect>
                    <rect id="Rectangle-path" x="28.193" y="196.367" width="152.024" height="7.126"></rect>
                </g>
                <g transform="translate(58.000000, 101.000000)" id="Shape" stroke="#676262" stroke-linecap="round" stroke-linejoin="round" stroke-width="2.8978">
                    <path d="M11.118,11.675 L0.219,0.776"></path>
                    <path d="M0.219,11.675 L11.118,0.776"></path>
                </g>
                <g transform="translate(58.000000, 184.000000)" id="Shape" stroke="#676262" stroke-linecap="round" stroke-linejoin="round" stroke-width="2.8978">
                    <path d="M11.118,11.262 L0.219,0.363"></path>
                    <path d="M0.219,11.262 L11.118,0.363"></path>
                </g>
                <g transform="translate(58.000000, 239.000000)" id="Shape" stroke="#676262" stroke-linecap="round" stroke-linejoin="round" stroke-width="2.8978">
                    <path d="M11.118,11.321 L0.219,0.422"></path>
                    <path d="M0.219,11.321 L11.118,0.422"></path>
                </g>
            </g>
            <g id="Group" transform="translate(128.000000, 96.000000)" fill="#EF4849" fill-rule="nonzero">
                <path d="M21.758,82.329 C15,72.41 11.231,61.04 9.236,53.078 L7.468,56.102 C7.037,56.839 6.09,57.088 5.352,56.657 L1.465,54.385 C0.728,53.954 0.479,53.007 0.91,52.269 L7.623,40.785 C8.336,39.565 9.621,38.711 11.035,38.729 C12.981,38.754 14.54,40.201 14.772,42.055 C14.798,42.261 17.454,62.439 27.962,77.946 C28.433,78.642 28.281,79.581 27.598,80.07 L23.932,82.701 C23.233,83.204 22.243,83.041 21.758,82.329 Z" id="Shape"></path>
                <path d="M38.527,72.484 C33.989,72.484 29.651,69.856 27.285,65.319 C22.676,56.479 24.37,47.971 28.253,42.949 C28.711,42.356 29.581,42.286 30.129,42.797 L33.836,46.256 C34.294,46.684 34.397,47.391 34.037,47.905 C32.257,50.451 30.734,55.504 34.02,61.808 C35.565,64.77 38.197,65.336 40.119,64.58 C43.035,63.436 45.09,59.034 43.105,51.777 C41.55,46.095 39.056,42.465 35.692,40.985 C31.805,39.276 27.362,40.695 25.341,41.534 C24.735,41.785 24.043,41.523 23.743,40.94 L21.419,36.426 C21.085,35.777 21.36,34.98 22.03,34.689 C25.008,33.396 32.011,31.068 38.75,34.032 C44.313,36.477 48.243,41.772 50.432,49.771 C53.662,61.576 48.973,69.266 42.893,71.651 C41.456,72.214 39.981,72.484 38.527,72.484 Z" id="Shape"></path>
                <path d="M66.302,59.972 C61.764,59.972 57.426,57.344 55.06,52.807 C50.451,43.967 52.145,35.459 56.028,30.437 C56.486,29.844 57.356,29.774 57.904,30.285 L61.611,33.744 C62.069,34.172 62.172,34.879 61.812,35.393 C60.032,37.939 58.509,42.992 61.795,49.296 C63.34,52.258 65.972,52.824 67.894,52.068 C70.81,50.924 72.865,46.522 70.88,39.265 C69.325,33.583 66.831,29.953 63.467,28.473 C59.58,26.764 55.137,28.183 53.116,29.022 C52.51,29.273 51.818,29.011 51.518,28.428 L49.194,23.914 C48.86,23.265 49.135,22.468 49.805,22.177 C52.783,20.884 59.786,18.556 66.525,21.52 C72.088,23.965 76.018,29.26 78.207,37.259 C81.437,49.064 76.748,56.754 70.668,59.139 C69.231,59.703 67.756,59.972 66.302,59.972 Z" id="Shape"></path>
                <path d="M97.775,3.398 L100.141,4.404 C100.766,4.67 101.069,5.375 100.832,6.011 C99.367,9.933 94.69,23.799 93.779,43.107 C93.746,43.801 93.166,44.347 92.471,44.32 L87.41,44.127 C86.707,44.1 86.155,43.497 86.188,42.794 C87.16,21.969 92.193,7.318 93.798,3.119 C94.054,2.448 94.813,2.136 95.474,2.417" id="Shape"></path>
                <path d="M81.265,16.556 C76.861,16.556 73.279,12.973 73.279,8.57 C73.279,4.166 76.862,0.584 81.265,0.584 C85.668,0.584 89.25,4.167 89.25,8.57 C89.25,12.973 85.669,16.556 81.265,16.556 Z M81.265,5.647 C79.653,5.647 78.342,6.957 78.342,8.57 C78.342,10.182 79.652,11.493 81.265,11.493 C82.876,11.493 84.186,10.183 84.186,8.57 C84.187,6.957 82.876,5.647 81.265,5.647 Z" id="Shape"></path>
                <path d="M105.529,42.558 C101.125,42.558 97.543,38.977 97.543,34.573 C97.543,30.169 101.126,26.587 105.529,26.587 C109.933,26.587 113.515,30.17 113.515,34.573 C113.515,38.976 109.932,42.558 105.529,42.558 Z M105.529,31.651 C103.917,31.651 102.606,32.961 102.606,34.574 C102.606,36.185 103.916,37.495 105.529,37.495 C107.142,37.495 108.452,36.185 108.452,34.574 C108.451,32.961 107.141,31.651 105.529,31.651 Z" id="Shape"></path>
                <path d="M23.455,108.683 C22.85,108.365 22.609,107.62 22.906,107.004 C23.256,106.277 23.596,105.611 23.966,104.912 C24.516,103.899 25.084,102.904 25.675,101.925 C26.858,99.968 28.124,98.069 29.459,96.219 C32.146,92.531 35.097,89.028 38.328,85.775 C41.541,82.504 45.057,79.518 48.759,76.766 C52.5,74.069 56.428,71.599 60.561,69.496 C64.708,67.424 69.024,65.672 73.458,64.305 C77.894,62.934 82.452,62.021 87.028,61.405 C95.8,60.383 104.66,60.729 113.149,62.423 C113.807,62.554 114.247,63.185 114.155,63.85 L113.433,69.05 C113.343,69.696 112.776,70.162 112.125,70.134 C104.129,69.782 96.236,70.16 88.56,71.512 C84.565,72.346 80.596,73.246 76.762,74.59 C72.939,75.946 69.161,77.435 65.559,79.318 C61.96,81.197 58.446,83.263 55.113,85.625 C51.74,87.929 48.55,90.517 45.476,93.255 C42.418,96.01 39.499,98.95 36.751,102.051 C35.355,103.584 34.031,105.182 32.741,106.801 C32.089,107.606 31.458,108.426 30.849,109.252 C30.474,109.737 30.091,110.26 29.738,110.755 C29.37,111.27 28.682,111.432 28.122,111.137 L23.455,108.683 Z" id="Shape"></path>
            </g>
        </g>
    </g>
</svg>